<svg width="64" height="64" viewBox="0 0 64 64" fill="none" xmlns="http://www.w3.org/2000/svg">
<rect width="64" height="64" fill="url(#paint0_linear_67_10)"/>
<path d="M7.96191 52.5684C7.96191 52.9248 7.89355 53.2593 7.75684 53.5718C7.625 53.8843 7.44189 54.1577 7.20752 54.3921C6.97314 54.6265 6.69971 54.812 6.38721 54.9487C6.07471 55.0806 5.74023 55.1465 5.38379 55.1465H4.63672C4.28027 55.1465 3.94336 55.0806 3.62598 54.9487C3.31348 54.812 3.04004 54.6265 2.80566 54.3921C2.57129 54.1577 2.38574 53.8843 2.24902 53.5718C2.11719 53.2593 2.05127 52.9248 2.05127 52.5684V46.9287C2.05127 46.5723 2.11719 46.2378 2.24902 45.9253C2.38574 45.6128 2.57129 45.3394 2.80566 45.105C3.04004 44.8706 3.31348 44.6875 3.62598 44.5557C3.94336 44.4189 4.28027 44.3506 4.63672 44.3506H5.38379C5.74023 44.3506 6.07471 44.4189 6.38721 44.5557C6.69971 44.6875 6.97314 44.8706 7.20752 45.105C7.44189 45.3394 7.625 45.6128 7.75684 45.9253C7.89355 46.2378 7.96191 46.5723 7.96191 46.9287V47.3535L7.01709 47.5V46.9287C7.01709 46.6943 6.97314 46.4771 6.88525 46.2769C6.79736 46.0718 6.67773 45.8936 6.52637 45.7422C6.375 45.5908 6.19678 45.4712 5.9917 45.3833C5.7915 45.2954 5.57422 45.2515 5.33984 45.2515H4.68066C4.44629 45.2515 4.22656 45.2954 4.02148 45.3833C3.82129 45.4712 3.64307 45.5908 3.48682 45.7422C3.33545 45.8936 3.21582 46.0718 3.12793 46.2769C3.04004 46.4771 2.99609 46.6943 2.99609 46.9287V52.5684C2.99609 52.8027 3.04004 53.0225 3.12793 53.2275C3.21582 53.4277 3.33545 53.606 3.48682 53.7622C3.64307 53.9136 3.82129 54.0332 4.02148 54.1211C4.22656 54.209 4.44629 54.2529 4.68066 54.2529H5.33984C5.57422 54.2529 5.7915 54.209 5.9917 54.1211C6.19678 54.0332 6.375 53.9136 6.52637 53.7622C6.67773 53.606 6.79736 53.4277 6.88525 53.2275C6.97314 53.0225 7.01709 52.8027 7.01709 52.5684V51.9971L7.96191 52.1509V52.5684ZM10.0713 55V44.4971H15.9819V45.3979H11.0161V49.3018H15.0371V50.2026H11.0161V54.0991H15.9819V55H10.0713ZM17.6372 55V44.4971H18.582V54.0991H22.603V55H17.6372ZM26.2578 45.3979V55H25.313V45.3979H22.8081V44.4971H28.7627V45.3979H26.2578ZM36.2773 45.3979V55H35.3325V45.3979H32.8276V44.4971H38.7822V45.3979H36.2773ZM40.291 55V44.4971H46.2017V45.3979H41.2358V49.3018H45.2568V50.2026H41.2358V54.0991H46.2017V55H40.291ZM53.7676 52.5684C53.7676 52.9248 53.6992 53.2593 53.5625 53.5718C53.4307 53.8843 53.2476 54.1577 53.0132 54.3921C52.7788 54.6265 52.5054 54.812 52.1929 54.9487C51.8804 55.0806 51.5459 55.1465 51.1895 55.1465H50.4424C50.0859 55.1465 49.749 55.0806 49.4316 54.9487C49.1191 54.812 48.8457 54.6265 48.6113 54.3921C48.377 54.1577 48.1914 53.8843 48.0547 53.5718C47.9229 53.2593 47.8569 52.9248 47.8569 52.5684V46.9287C47.8569 46.5723 47.9229 46.2378 48.0547 45.9253C48.1914 45.6128 48.377 45.3394 48.6113 45.105C48.8457 44.8706 49.1191 44.6875 49.4316 44.5557C49.749 44.4189 50.0859 44.3506 50.4424 44.3506H51.1895C51.5459 44.3506 51.8804 44.4189 52.1929 44.5557C52.5054 44.6875 52.7788 44.8706 53.0132 45.105C53.2476 45.3394 53.4307 45.6128 53.5625 45.9253C53.6992 46.2378 53.7676 46.5723 53.7676 46.9287V47.3535L52.8228 47.5V46.9287C52.8228 46.6943 52.7788 46.4771 52.6909 46.2769C52.603 46.0718 52.4834 45.8936 52.332 45.7422C52.1807 45.5908 52.0024 45.4712 51.7974 45.3833C51.5972 45.2954 51.3799 45.2515 51.1455 45.2515H50.4863C50.252 45.2515 50.0322 45.2954 49.8271 45.3833C49.627 45.4712 49.4487 45.5908 49.2925 45.7422C49.1411 45.8936 49.0215 46.0718 48.9336 46.2769C48.8457 46.4771 48.8018 46.6943 48.8018 46.9287V52.5684C48.8018 52.8027 48.8457 53.0225 48.9336 53.2275C49.0215 53.4277 49.1411 53.606 49.2925 53.7622C49.4487 53.9136 49.627 54.0332 49.8271 54.1211C50.0322 54.209 50.252 54.2529 50.4863 54.2529H51.1455C51.3799 54.2529 51.5972 54.209 51.7974 54.1211C52.0024 54.0332 52.1807 53.9136 52.332 53.7622C52.4834 53.606 52.603 53.4277 52.6909 53.2275C52.7788 53.0225 52.8228 52.8027 52.8228 52.5684V51.9971L53.7676 52.1509V52.5684ZM60.8428 55V50.2026H56.8218V55H55.877V44.4971H56.8218V49.3018H60.8428V44.4971H61.7876V55H60.8428Z" fill="white"/>
<path d="M25.625 33.16C25.625 32.6053 25.7743 32.0933 26.073 31.624C26.3717 31.112 26.7557 30.7067 27.225 30.408C27.737 30.1093 28.2703 29.96 28.825 29.96C29.3797 29.96 29.8917 30.1093 30.361 30.408C30.873 30.7067 31.2783 31.112 31.577 31.624C31.8757 32.0933 32.025 32.6053 32.025 33.16C32.025 33.7147 31.8757 34.248 31.577 34.76C31.2783 35.2293 30.873 35.6133 30.361 35.912C29.8917 36.2107 29.3797 36.36 28.825 36.36C28.2703 36.36 27.737 36.2107 27.225 35.912C26.7557 35.6133 26.3717 35.2293 26.073 34.76C25.7743 34.248 25.625 33.7147 25.625 33.16ZM25.728 32.104L32.128 10.344L38.272 12.136L31.872 33.896L25.728 32.104ZM31.975 11C31.975 10.4453 32.1243 9.93333 32.423 9.464C32.7217 8.952 33.127 8.54667 33.639 8.248C34.1083 7.94933 34.6203 7.8 35.175 7.8C35.7297 7.8 36.263 7.94933 36.775 8.248C37.2443 8.54667 37.6283 8.952 37.927 9.464C38.2257 9.93333 38.375 10.4453 38.375 11C38.375 11.5547 38.2257 12.0667 37.927 12.536C37.6283 13.048 37.2443 13.4533 36.775 13.752C36.263 14.0507 35.7297 14.2 35.175 14.2C34.6203 14.2 34.1083 14.0507 33.639 13.752C33.127 13.4533 32.7217 13.048 32.423 12.536C32.1243 12.0667 31.975 11.5547 31.975 11Z" fill="white"/>
<defs>
<linearGradient id="paint0_linear_67_10" x1="27.5" y1="-8.5" x2="47.5" y2="68" gradientUnits="userSpaceOnUse">
<stop stop-color="#1D1D1D"/>
<stop offset="0.5" stop-color="#464545" stop-opacity="0.5"/>
<stop offset="0.75" stop-color="#232323" stop-opacity="0.25"/>
<stop offset="1" stop-opacity="0"/>
</linearGradient>
</defs>
</svg>
